<mxfile host="app.diagrams.net" modified="2023-10-17T04:30:55.268Z" agent="Mozilla/5.0 (Windows NT 10.0; Win64; x64; rv:109.0) Gecko/20100101 Firefox/118.0" etag="rc90fO2mojGR7qieDQ2y" version="22.0.4" type="github">
  <diagram name="Page-1" id="MOFV3vKOLyDGz6TQ_8hC">
    <mxGraphModel dx="1114" dy="602" grid="1" gridSize="10" guides="1" tooltips="1" connect="1" arrows="1" fold="1" page="1" pageScale="1" pageWidth="850" pageHeight="1100" math="0" shadow="0">
      <root>
        <mxCell id="0" />
        <mxCell id="1" parent="0" />
        <mxCell id="XIltd2fuX6uqen9jKxAa-3" value="" style="edgeStyle=orthogonalEdgeStyle;rounded=0;orthogonalLoop=1;jettySize=auto;html=1;" edge="1" parent="1" source="XIltd2fuX6uqen9jKxAa-1">
          <mxGeometry relative="1" as="geometry">
            <mxPoint x="465" y="310" as="targetPoint" />
          </mxGeometry>
        </mxCell>
        <mxCell id="XIltd2fuX6uqen9jKxAa-1" value="start" style="strokeWidth=2;html=1;shape=mxgraph.flowchart.terminator;whiteSpace=wrap;" vertex="1" parent="1">
          <mxGeometry x="390" y="170" width="150" height="60" as="geometry" />
        </mxCell>
        <mxCell id="XIltd2fuX6uqen9jKxAa-7" value="" style="edgeStyle=orthogonalEdgeStyle;rounded=0;orthogonalLoop=1;jettySize=auto;html=1;" edge="1" parent="1" source="XIltd2fuX6uqen9jKxAa-4" target="XIltd2fuX6uqen9jKxAa-6">
          <mxGeometry relative="1" as="geometry" />
        </mxCell>
        <mxCell id="XIltd2fuX6uqen9jKxAa-4" value="&lt;div&gt;Lo&lt;/div&gt;&lt;div&gt;phi&lt;/div&gt;&lt;div&gt;d&lt;br&gt;&lt;/div&gt;" style="shape=parallelogram;perimeter=parallelogramPerimeter;whiteSpace=wrap;html=1;fixedSize=1;strokeWidth=2;" vertex="1" parent="1">
          <mxGeometry x="405" y="310" width="120" height="60" as="geometry" />
        </mxCell>
        <mxCell id="XIltd2fuX6uqen9jKxAa-9" value="" style="edgeStyle=orthogonalEdgeStyle;rounded=0;orthogonalLoop=1;jettySize=auto;html=1;" edge="1" parent="1" source="XIltd2fuX6uqen9jKxAa-6" target="XIltd2fuX6uqen9jKxAa-8">
          <mxGeometry relative="1" as="geometry" />
        </mxCell>
        <mxCell id="XIltd2fuX6uqen9jKxAa-6" value="Lo = phi x d" style="whiteSpace=wrap;html=1;strokeWidth=2;" vertex="1" parent="1">
          <mxGeometry x="405" y="450" width="120" height="60" as="geometry" />
        </mxCell>
        <mxCell id="XIltd2fuX6uqen9jKxAa-11" value="" style="edgeStyle=orthogonalEdgeStyle;rounded=0;orthogonalLoop=1;jettySize=auto;html=1;" edge="1" parent="1" source="XIltd2fuX6uqen9jKxAa-8" target="XIltd2fuX6uqen9jKxAa-10">
          <mxGeometry relative="1" as="geometry" />
        </mxCell>
        <mxCell id="XIltd2fuX6uqen9jKxAa-8" value="Lo" style="shape=parallelogram;perimeter=parallelogramPerimeter;whiteSpace=wrap;html=1;fixedSize=1;strokeWidth=2;" vertex="1" parent="1">
          <mxGeometry x="405" y="590" width="120" height="60" as="geometry" />
        </mxCell>
        <mxCell id="XIltd2fuX6uqen9jKxAa-10" value="end" style="strokeWidth=2;html=1;shape=mxgraph.flowchart.terminator;whiteSpace=wrap;" vertex="1" parent="1">
          <mxGeometry x="570" y="590" width="100" height="60" as="geometry" />
        </mxCell>
      </root>
    </mxGraphModel>
  </diagram>
</mxfile>
